<?xml version="1.0" ?><svg viewBox="0 0 64 64" xmlns="http://www.w3.org/2000/svg"><defs><style>.cls-1{fill:#231f20;}.cls-2{fill:#414042;}.cls-3{fill:#ffbe00;}.cls-4{fill:#fff200;}</style></defs><title/><g id="time-discount"><path class="cls-1" d="M37,5v5.47a26.83,26.83,0,0,0-10,0V5a2,2,0,0,1,2-2h6A2,2,0,0,1,37,5Z"/><circle class="cls-2" cx="32" cy="34" r="27"/><path class="cls-1" d="M59,34A27,27,0,0,1,32,61V7A27,27,0,0,1,59,34Z"/><path class="cls-3" d="M54.59,15.41a2,2,0,0,0,2.82-2.82l-5-5a2,2,0,0,0-2.82,2.82Z"/><path class="cls-4" d="M8,16a2,2,0,0,0,1.41-.59l5-5a2,2,0,0,0-2.82-2.82l-5,5A2,2,0,0,0,8,16Z"/><path class="cls-4" d="M44.38,25.45,32,37.27l-9.62,9.18A2,2,0,0,1,21,47a2,2,0,0,1-1.38-3.45L32,31.73l9.62-9.18a2,2,0,1,1,2.76,2.9Z"/><path class="cls-4" d="M30,26.5A6.5,6.5,0,1,0,23.5,33,6.51,6.51,0,0,0,30,26.5Zm-9,0A2.5,2.5,0,1,1,23.5,29,2.5,2.5,0,0,1,21,26.5Z"/><path class="cls-4" d="M40.5,36A6.5,6.5,0,1,0,47,42.5,6.51,6.51,0,0,0,40.5,36Zm0,9A2.5,2.5,0,1,1,43,42.5,2.5,2.5,0,0,1,40.5,45Z"/><path class="cls-3" d="M44.45,22.62a2,2,0,0,0-2.83-.07L32,31.73v5.54L44.38,25.45A2,2,0,0,0,44.45,22.62Z"/><path class="cls-3" d="M40.5,36A6.5,6.5,0,1,0,47,42.5,6.51,6.51,0,0,0,40.5,36Zm0,9A2.5,2.5,0,1,1,43,42.5,2.5,2.5,0,0,1,40.5,45Z"/></g></svg>